<svg width="28" height="15" viewBox="0 0 28 15" fill="none" xmlns="http://www.w3.org/2000/svg">
<path fill-rule="evenodd" clip-rule="evenodd" d="M28 1.5C28 0.671573 27.3284 0 26.5 0H1.5C0.671574 0 0 0.671573 0 1.5C0 2.32843 0.671574 3 1.5 3H26.5C27.3284 3 28 2.32843 28 1.5ZM28 7.5C28 6.67157 27.3284 6 26.5 6H6.5C5.67157 6 5 6.67157 5 7.5C5 8.32843 5.67157 9 6.5 9H26.5C27.3284 9 28 8.32843 28 7.5ZM28 13.5C28 12.6716 27.3284 12 26.5 12H1.5C0.671574 12 0 12.6716 0 13.5C0 14.3284 0.671574 15 1.5 15H26.5C27.3284 15 28 14.3284 28 13.5Z" fill="#40BDA8"/>
</svg>
